<?xml version="1.0" standalone="no"?>
<!DOCTYPE svg PUBLIC "-//W3C//DTD SVG 20010904//EN"
 "http://www.w3.org/TR/2001/REC-SVG-20010904/DTD/svg10.dtd">
<svg version="1.0" xmlns="http://www.w3.org/2000/svg"
 width="400.000000pt" height="400.000000pt" viewBox="0 0 400.000000 400.000000"
 preserveAspectRatio="xMidYMid meet">
<metadata>
Created by potrace 1.14, written by Peter Selinger 2001-2017
</metadata>
<g transform="translate(0.000000,400.000000) scale(0.100000,-0.100000)"
fill="#000000" stroke="none">
<path d="M2740 3993 c-46 -13 -104 -49 -128 -79 -32 -40 -38 -40 -140 -14
-205 51 -489 66 -722 36 -443 -57 -834 -244 -1136 -543 -252 -249 -413 -529
-503 -874 -33 -127 -61 -344 -61 -472 0 -91 33 -374 49 -422 40 -120 68 -228
64 -245 -3 -12 0 -20 7 -20 8 0 11 -12 8 -37 -4 -32 0 -42 23 -64 15 -14 31
-39 35 -55 4 -16 18 -39 33 -50 23 -20 24 -24 13 -49 -9 -20 -10 -31 -2 -39 5
-5 10 -6 10 -2 0 5 7 3 15 -4 8 -7 15 -21 15 -31 0 -10 9 -23 20 -29 11 -6 23
-23 26 -37 4 -15 20 -38 36 -51 15 -13 28 -29 28 -36 0 -7 11 -18 25 -24 14
-6 25 -20 25 -29 0 -10 14 -31 30 -47 17 -16 30 -39 30 -50 0 -31 14 -48 33
-40 11 4 19 0 23 -10 3 -9 15 -16 25 -16 12 0 19 -7 19 -20 0 -11 6 -20 14
-20 8 0 18 -10 22 -22 7 -24 42 -57 61 -58 7 0 17 -9 23 -21 7 -11 24 -25 39
-30 18 -6 32 -22 40 -44 9 -25 18 -35 39 -37 16 -2 31 -12 37 -25 5 -12 21
-24 36 -27 15 -3 36 -14 46 -24 10 -11 36 -25 58 -32 22 -8 49 -23 60 -34 26
-26 125 -76 152 -76 11 0 26 -6 32 -14 7 -8 42 -24 79 -36 37 -12 86 -30 109
-41 24 -10 49 -19 56 -19 7 0 18 -5 24 -11 6 -6 44 -13 85 -16 120 -7 137 -10
150 -20 8 -7 33 -8 68 -2 30 4 77 8 103 8 31 1 49 6 53 15 3 8 25 17 50 21 24
3 56 13 71 20 20 11 30 11 41 3 8 -7 16 -8 20 -2 12 17 59 33 81 27 12 -3 21
-1 21 6 0 6 12 16 27 22 15 6 43 17 61 26 18 9 35 13 39 9 3 -3 27 5 52 18 25
14 63 27 84 31 21 3 37 12 37 19 0 9 19 16 50 20 30 4 59 15 71 27 13 13 27
17 43 13 20 -5 25 -2 28 17 2 18 13 25 55 34 32 7 66 24 88 43 27 25 45 32 75
32 30 0 46 6 62 25 12 14 27 25 34 25 6 0 14 7 18 15 3 8 18 15 34 15 17 0 38
10 52 25 13 14 29 25 36 25 7 0 18 9 24 20 6 11 17 17 25 14 8 -3 27 6 42 21
15 15 38 31 51 36 12 4 22 15 22 24 0 8 5 15 12 15 20 0 87 51 93 71 4 11 12
19 18 19 7 0 29 18 50 40 20 22 44 40 52 40 8 0 15 4 15 10 0 12 68 80 81 80
6 0 6 8 -2 21 -9 18 -7 24 12 37 13 10 26 19 30 22 3 3 18 31 33 62 15 32 32
58 37 58 5 0 9 11 9 24 0 14 4 27 9 30 4 3 6 17 3 31 -2 14 1 32 8 40 8 9 9
28 5 54 -5 30 -1 57 16 103 21 56 23 82 23 238 1 161 -1 180 -23 240 -13 36
-30 72 -38 81 -7 8 -13 20 -13 25 0 11 -90 127 -102 132 -5 2 -14 9 -21 15 -6
7 -52 38 -100 70 -48 32 -95 71 -105 85 -19 29 -20 97 -5 277 10 126 2 207
-31 315 -39 126 -123 281 -206 376 -18 21 -29 48 -34 82 -17 133 -133 327
-275 464 -90 86 -107 101 -154 131 -32 21 -55 26 -77 20z"/>
</g>
</svg>
